<svg width="1416" height="1416" viewBox="0 0 1416 1416" fill="none" xmlns="http://www.w3.org/2000/svg">
<path d="M1145.42 239.5C1150.15 239.5 1154.73 241.15 1158.38 244.167L1209.18 286.198C1213.86 290.065 1216.57 295.819 1216.57 301.89V1155.14C1216.57 1166.39 1207.46 1175.5 1196.22 1175.5H270.646C264.58 1175.5 258.831 1172.79 254.966 1168.11L206.52 1109.46C203.512 1105.82 201.864 1101.25 201.856 1096.53L200.436 259.894C200.416 248.636 209.53 239.5 220.779 239.5H1145.42Z" fill="black" stroke="black"/>
<path d="M1145.42 241.42H220.779C210.59 241.42 202.336 249.695 202.354 259.891L203.774 1096.52C203.781 1100.8 205.274 1104.94 207.998 1108.24L256.444 1166.89C259.945 1171.13 265.152 1173.58 270.646 1173.58H1196.22C1206.4 1173.58 1214.65 1165.32 1214.65 1155.14V301.89C1214.65 296.392 1212.2 291.181 1207.96 287.678L1157.16 245.648C1153.85 242.915 1149.7 241.42 1145.42 241.42ZM1145.42 239.5C1150.15 239.5 1154.73 241.15 1158.38 244.167L1209.18 286.198C1213.86 290.065 1216.57 295.819 1216.57 301.89V1155.14C1216.57 1166.39 1207.46 1175.5 1196.22 1175.5H270.646C264.58 1175.5 258.831 1172.79 254.966 1168.11L206.52 1109.46C203.512 1105.82 201.864 1101.25 201.856 1096.53L200.436 259.894C200.416 248.636 209.53 239.5 220.779 239.5H1145.42Z" fill="black" stroke="black"/>
<path d="M200.436 259.864C200.436 248.617 209.543 239.5 220.776 239.5H666.336C677.569 239.5 686.676 248.617 686.676 259.864V1081.47C686.676 1092.72 677.569 1101.83 666.336 1101.83H220.776C209.543 1101.83 200.436 1092.72 200.436 1081.47V259.864Z" fill="white" stroke="black"/>
<path d="M666.336 241.421H220.776C210.601 241.421 202.353 249.678 202.353 259.864V1081.47C202.353 1091.65 210.601 1099.91 220.776 1099.91H666.336C676.51 1099.91 684.758 1091.65 684.758 1081.47V259.864C684.758 249.678 676.51 241.421 666.336 241.421ZM200.436 259.864C200.436 248.617 209.543 239.5 220.776 239.5H666.336C677.568 239.5 686.676 248.617 686.676 259.864V1081.47C686.676 1092.72 677.568 1101.83 666.336 1101.83H220.776C209.543 1101.83 200.436 1092.72 200.436 1081.47V259.864Z" fill="black" stroke="black"/>
<path d="M654.211 293.371C654.211 281.573 644.658 272.008 632.871 272.008H254.24C242.454 272.008 232.9 281.573 232.9 293.371V1047.96C232.9 1059.76 242.454 1069.32 254.24 1069.32H632.871C644.658 1069.32 654.211 1059.76 654.211 1047.96V293.371ZM200.436 259.864C200.436 248.617 209.543 239.5 220.776 239.5H666.336C677.568 239.5 686.676 248.617 686.676 259.864V1081.47C686.676 1092.72 677.568 1101.83 666.336 1101.83H220.776C209.543 1101.83 200.436 1092.72 200.436 1081.47V259.864Z" fill="black" stroke="black"/>
<path d="M254.24 270.087H632.871C645.716 270.087 656.129 280.511 656.129 293.371V1047.96C656.129 1060.82 645.716 1071.25 632.871 1071.25H254.24C241.396 1071.25 230.982 1060.82 230.982 1047.96V293.371C230.982 280.511 241.396 270.087 254.24 270.087ZM666.336 241.421H220.776C210.601 241.421 202.353 249.678 202.353 259.864V1081.47C202.353 1091.65 210.601 1099.91 220.776 1099.91H666.336C676.51 1099.91 684.758 1091.65 684.758 1081.47V259.864C684.758 249.678 676.51 241.421 666.336 241.421ZM654.211 293.371C654.211 281.573 644.658 272.008 632.871 272.008H254.24C242.454 272.008 232.9 281.573 232.9 293.371V1047.96C232.9 1059.76 242.454 1069.32 254.24 1069.32H632.871C644.658 1069.32 654.211 1059.76 654.211 1047.96V293.371ZM200.436 259.864C200.436 248.617 209.543 239.5 220.776 239.5H666.336C677.568 239.5 686.676 248.617 686.676 259.864V1081.47C686.676 1092.72 677.568 1101.83 666.336 1101.83H220.776C209.543 1101.83 200.436 1092.72 200.436 1081.47V259.864Z" fill="black" stroke="black"/>
<path d="M654.072 259.864C654.072 248.617 663.195 239.5 674.45 239.5H1121.23C1132.48 239.5 1141.6 248.617 1141.6 259.864V1081.47C1141.6 1092.72 1132.48 1101.83 1121.23 1101.83H674.45C663.195 1101.83 654.072 1092.72 654.072 1081.47V259.864Z" fill="white" stroke="black"/>
<path d="M1121.23 241.421H674.45C664.258 241.421 655.995 249.678 655.995 259.864V1081.47C655.995 1091.65 664.258 1099.91 674.45 1099.91H1121.23C1131.42 1099.91 1139.68 1091.65 1139.68 1081.47V259.864C1139.68 249.678 1131.42 241.421 1121.23 241.421ZM654.072 259.864C654.072 248.617 663.195 239.5 674.45 239.5H1121.23C1132.48 239.5 1141.6 248.617 1141.6 259.864V1081.47C1141.6 1092.72 1132.48 1101.83 1121.23 1101.83H674.45C663.195 1101.83 654.072 1092.72 654.072 1081.47V259.864Z" fill="black" stroke="black"/>
<path d="M1109.05 293.371C1109.05 281.572 1099.48 272.008 1087.67 272.008H708.003C696.197 272.008 686.625 281.572 686.625 293.371V1047.96C686.625 1059.76 696.197 1069.32 708.003 1069.32H1087.67C1099.48 1069.32 1109.05 1059.76 1109.05 1047.96V293.371ZM654.072 259.864C654.072 248.617 663.195 239.5 674.45 239.5H1121.23C1132.48 239.5 1141.6 248.617 1141.6 259.864V1081.47C1141.6 1092.72 1132.48 1101.83 1121.23 1101.83H674.45C663.195 1101.83 654.072 1092.72 654.072 1081.47V259.864Z" fill="black" stroke="black"/>
<path d="M708.003 270.087H1087.67C1100.54 270.087 1110.97 280.512 1110.97 293.371V1047.96C1110.97 1060.82 1100.54 1071.25 1087.67 1071.25H708.003C695.134 1071.25 684.702 1060.82 684.702 1047.96V293.371C684.702 280.512 695.134 270.087 708.003 270.087ZM1121.23 241.421H674.45C664.258 241.421 655.995 249.678 655.995 259.864V1081.47C655.995 1091.65 664.258 1099.91 674.45 1099.91H1121.23C1131.42 1099.91 1139.68 1091.65 1139.68 1081.47V259.864C1139.68 249.678 1131.42 241.421 1121.23 241.421ZM1109.05 293.371C1109.05 281.572 1099.48 272.008 1087.67 272.008H708.003C696.197 272.008 686.625 281.572 686.625 293.371V1047.96C686.625 1059.76 696.197 1069.32 708.003 1069.32H1087.67C1099.48 1069.32 1109.05 1059.76 1109.05 1047.96V293.371ZM654.072 259.864C654.072 248.617 663.195 239.5 674.45 239.5H1121.23C1132.48 239.5 1141.6 248.617 1141.6 259.864V1081.47C1141.6 1092.72 1132.48 1101.83 1121.23 1101.83H674.45C663.195 1101.83 654.072 1092.72 654.072 1081.47V259.864Z" fill="black" stroke="black"/>
<path d="M666.277 241.419H399.188C388.987 241.419 380.715 249.671 380.715 259.852V909.59C380.715 919.771 388.987 928.022 399.188 928.022H666.277C676.478 928.022 684.75 919.771 684.75 909.59V259.852C684.75 249.671 676.478 241.419 666.277 241.419ZM378.789 259.852C378.789 248.613 387.921 239.5 399.188 239.5H666.277C677.544 239.5 686.676 248.613 686.676 259.852V909.59C686.676 920.829 677.544 929.941 666.277 929.941H399.188C387.921 929.941 378.789 920.829 378.789 909.59V259.852Z" fill="black" stroke="black"/>
<path d="M654.138 293.344C654.138 281.55 644.556 271.992 632.739 271.992H432.726C420.909 271.992 411.327 281.55 411.327 293.344V876.098C411.327 887.891 420.909 897.449 432.726 897.449H632.739C644.556 897.449 654.138 887.891 654.138 876.098V293.344ZM378.789 259.852C378.789 248.613 387.921 239.5 399.188 239.5H666.277C677.544 239.5 686.676 248.613 686.676 259.852V909.59C686.676 920.829 677.544 929.941 666.277 929.941H399.188C387.921 929.941 378.789 920.829 378.789 909.59V259.852Z" fill="black" stroke="black"/>
<mask id="path-13-inside-1_37_0" fill="white">
<path fill-rule="evenodd" clip-rule="evenodd" d="M632.739 269.573H432.726C419.568 269.573 408.901 280.215 408.901 293.344V876.098C408.901 889.226 419.568 899.869 432.726 899.869H632.739C645.897 899.869 656.564 889.226 656.564 876.098V782.849C667.326 781.315 675.543 773.107 675.543 763.211V636.28C675.543 626.384 667.326 618.176 656.564 616.642V293.344C656.564 280.215 645.897 269.573 632.739 269.573ZM653.638 616.395V293.344C653.638 281.828 644.281 272.492 632.739 272.492H432.726C421.184 272.492 411.827 281.828 411.827 293.344V876.098C411.827 887.614 421.184 896.949 432.726 896.949H632.739C644.281 896.949 653.638 887.614 653.638 876.098V783.096C653.398 783.103 653.157 783.106 652.915 783.106H563.761C551.263 783.106 541.132 774.199 541.132 763.211V636.28C541.132 625.292 551.263 616.385 563.761 616.385H652.915C653.157 616.385 653.398 616.388 653.638 616.395ZM399.188 241.919H666.277C676.203 241.919 684.25 249.948 684.25 259.852V909.59C684.25 919.494 676.203 927.522 666.277 927.522H399.188C389.262 927.522 381.215 919.494 381.215 909.59V259.852C381.215 249.948 389.262 241.919 399.188 241.919ZM399.188 239C387.646 239 378.289 248.336 378.289 259.852V909.59C378.289 921.106 387.646 930.441 399.188 930.441H666.277C677.819 930.441 687.176 921.106 687.176 909.59V259.852C687.176 248.336 677.819 239 666.277 239H399.188Z"/>
</mask>
<path fill-rule="evenodd" clip-rule="evenodd" d="M632.739 269.573H432.726C419.568 269.573 408.901 280.215 408.901 293.344V876.098C408.901 889.226 419.568 899.869 432.726 899.869H632.739C645.897 899.869 656.564 889.226 656.564 876.098V782.849C667.326 781.315 675.543 773.107 675.543 763.211V636.28C675.543 626.384 667.326 618.176 656.564 616.642V293.344C656.564 280.215 645.897 269.573 632.739 269.573ZM653.638 616.395V293.344C653.638 281.828 644.281 272.492 632.739 272.492H432.726C421.184 272.492 411.827 281.828 411.827 293.344V876.098C411.827 887.614 421.184 896.949 432.726 896.949H632.739C644.281 896.949 653.638 887.614 653.638 876.098V783.096C653.398 783.103 653.157 783.106 652.915 783.106H563.761C551.263 783.106 541.132 774.199 541.132 763.211V636.28C541.132 625.292 551.263 616.385 563.761 616.385H652.915C653.157 616.385 653.398 616.388 653.638 616.395ZM399.188 241.919H666.277C676.203 241.919 684.25 249.948 684.25 259.852V909.59C684.25 919.494 676.203 927.522 666.277 927.522H399.188C389.262 927.522 381.215 919.494 381.215 909.59V259.852C381.215 249.948 389.262 241.919 399.188 241.919ZM399.188 239C387.646 239 378.289 248.336 378.289 259.852V909.59C378.289 921.106 387.646 930.441 399.188 930.441H666.277C677.819 930.441 687.176 921.106 687.176 909.59V259.852C687.176 248.336 677.819 239 666.277 239H399.188Z" fill="black"/>
<path d="M656.564 782.849L656.423 781.859L655.564 781.981V782.849H656.564ZM656.564 616.642H655.564V617.51L656.423 617.632L656.564 616.642ZM653.638 616.395L653.61 617.394L654.638 617.423V616.395H653.638ZM653.638 783.096H654.638V782.068L653.61 782.097L653.638 783.096ZM432.726 270.573H632.739V268.573H432.726V270.573ZM409.901 293.344C409.901 280.77 420.118 270.573 432.726 270.573V268.573C419.018 268.573 407.901 279.661 407.901 293.344H409.901ZM409.901 876.098V293.344H407.901V876.098H409.901ZM432.726 898.869C420.118 898.869 409.901 888.672 409.901 876.098H407.901C407.901 889.781 419.018 900.869 432.726 900.869V898.869ZM632.739 898.869H432.726V900.869H632.739V898.869ZM655.564 876.098C655.564 888.672 645.347 898.869 632.739 898.869V900.869C646.447 900.869 657.564 889.781 657.564 876.098H655.564ZM655.564 782.849V876.098H657.564V782.849H655.564ZM674.543 763.211C674.543 772.509 666.799 780.38 656.423 781.859L656.705 783.839C667.853 782.25 676.543 773.705 676.543 763.211H674.543ZM674.543 636.28V763.211H676.543V636.28H674.543ZM656.423 617.632C666.799 619.111 674.543 626.982 674.543 636.28H676.543C676.543 625.786 667.854 617.241 656.705 615.652L656.423 617.632ZM655.564 293.344V616.642H657.564V293.344H655.564ZM632.739 270.573C645.347 270.573 655.564 280.77 655.564 293.344H657.564C657.564 279.661 646.447 268.573 632.739 268.573V270.573ZM652.638 293.344V616.395H654.638V293.344H652.638ZM632.739 273.492C643.731 273.492 652.638 282.382 652.638 293.344H654.638C654.638 281.273 644.831 271.492 632.739 271.492V273.492ZM432.726 273.492H632.739V271.492H432.726V273.492ZM412.827 293.344C412.827 282.382 421.734 273.492 432.726 273.492V271.492C420.634 271.492 410.827 281.273 410.827 293.344H412.827ZM412.827 876.098V293.344H410.827V876.098H412.827ZM432.726 895.949C421.734 895.949 412.827 887.059 412.827 876.098H410.827C410.827 888.168 420.634 897.949 432.726 897.949V895.949ZM632.739 895.949H432.726V897.949H632.739V895.949ZM652.638 876.098C652.638 887.059 643.731 895.949 632.739 895.949V897.949C644.831 897.949 654.638 888.168 654.638 876.098H652.638ZM652.638 783.096V876.098H654.638V783.096H652.638ZM653.61 782.097C653.379 782.103 653.148 782.106 652.915 782.106V784.106C653.166 784.106 653.416 784.103 653.665 784.096L653.61 782.097ZM652.915 782.106H563.761V784.106H652.915V782.106ZM563.761 782.106C551.691 782.106 542.132 773.53 542.132 763.211H540.132C540.132 774.868 550.836 784.106 563.761 784.106V782.106ZM542.132 763.211V636.28H540.132V763.211H542.132ZM542.132 636.28C542.132 625.962 551.691 617.385 563.761 617.385V615.385C550.836 615.385 540.132 624.623 540.132 636.28H542.132ZM563.761 617.385H652.915V615.385H563.761V617.385ZM652.915 617.385C653.148 617.385 653.38 617.388 653.61 617.394L653.665 615.395C653.416 615.388 653.166 615.385 652.915 615.385V617.385ZM666.277 240.919H399.188V242.919H666.277V240.919ZM685.25 259.852C685.25 249.393 676.753 240.919 666.277 240.919V242.919C675.653 242.919 683.25 250.502 683.25 259.852H685.25ZM685.25 909.59V259.852H683.25V909.59H685.25ZM666.277 928.522C676.753 928.522 685.25 920.048 685.25 909.59H683.25C683.25 918.939 675.653 926.522 666.277 926.522V928.522ZM399.188 928.522H666.277V926.522H399.188V928.522ZM380.215 909.59C380.215 920.048 388.712 928.522 399.188 928.522V926.522C389.812 926.522 382.215 918.939 382.215 909.59H380.215ZM380.215 259.852V909.59H382.215V259.852H380.215ZM399.188 240.919C388.712 240.919 380.215 249.393 380.215 259.852H382.215C382.215 250.502 389.812 242.919 399.188 242.919V240.919ZM379.289 259.852C379.289 248.89 388.196 240 399.188 240V238C387.096 238 377.289 247.781 377.289 259.852H379.289ZM379.289 909.59V259.852H377.289V909.59H379.289ZM399.188 929.441C388.196 929.441 379.289 920.551 379.289 909.59H377.289C377.289 921.66 387.096 931.441 399.188 931.441V929.441ZM666.277 929.441H399.188V931.441H666.277V929.441ZM686.176 909.59C686.176 920.551 677.269 929.441 666.277 929.441V931.441C678.369 931.441 688.176 921.66 688.176 909.59H686.176ZM686.176 259.852V909.59H688.176V259.852H686.176ZM666.277 240C677.269 240 686.176 248.89 686.176 259.852H688.176C688.176 247.781 678.369 238 666.277 238V240ZM399.188 240H666.277V238H399.188V240Z" fill="black" mask="url(#path-13-inside-1_37_0)"/>
<path d="M541.633 390.304C541.633 379.169 551.963 370.033 564.849 370.033H658.29C671.176 370.033 681.506 379.169 681.506 390.304V499.975C681.506 511.11 671.176 520.246 658.29 520.246H564.849C551.963 520.246 541.633 511.11 541.633 499.975V390.304Z" fill="black" stroke="black"/>
<mask id="path-16-inside-2_37_0" fill="white">
<path fill-rule="evenodd" clip-rule="evenodd" d="M665.121 390.388C665.121 378.916 655.769 369.617 644.233 369.617H562.104C550.568 369.617 541.217 378.916 541.217 390.388V499.891C541.217 511.363 550.568 520.662 562.104 520.662H644.233C655.769 520.662 665.121 511.363 665.121 499.891V390.388ZM562.02 369.533C550.484 369.533 541.133 378.833 541.133 390.304V499.975C541.133 511.446 550.484 520.746 562.02 520.746H644.317C655.853 520.746 665.205 511.446 665.205 499.975V390.304C665.205 378.833 655.853 369.533 644.317 369.533H562.02Z"/>
</mask>
<path fill-rule="evenodd" clip-rule="evenodd" d="M665.121 390.388C665.121 378.916 655.769 369.617 644.233 369.617H562.104C550.568 369.617 541.217 378.916 541.217 390.388V499.891C541.217 511.363 550.568 520.662 562.104 520.662H644.233C655.769 520.662 665.121 511.363 665.121 499.891V390.388ZM562.02 369.533C550.484 369.533 541.133 378.833 541.133 390.304V499.975C541.133 511.446 550.484 520.746 562.02 520.746H644.317C655.853 520.746 665.205 511.446 665.205 499.975V390.304C665.205 378.833 655.853 369.533 644.317 369.533H562.02Z" fill="black"/>
<path d="M666.121 390.388C666.121 378.358 656.316 368.617 644.233 368.617V370.617C655.222 370.617 664.121 379.474 664.121 390.388H666.121ZM644.233 368.617H562.104V370.617H644.233V368.617ZM562.104 368.617C550.021 368.617 540.217 378.358 540.217 390.388H542.217C542.217 379.474 551.115 370.617 562.104 370.617V368.617ZM540.217 390.388V499.891H542.217V390.388H540.217ZM540.217 499.891C540.217 511.92 550.021 521.662 562.104 521.662V519.662C551.115 519.662 542.217 510.805 542.217 499.891H540.217ZM562.104 521.662H644.233V519.662H562.104V521.662ZM644.233 521.662C656.316 521.662 666.121 511.92 666.121 499.891H664.121C664.121 510.805 655.222 519.662 644.233 519.662V521.662ZM666.121 499.891V390.388H664.121V499.891H666.121ZM562.02 368.533C549.937 368.533 540.133 378.275 540.133 390.304H542.133C542.133 379.39 551.031 370.533 562.02 370.533V368.533ZM540.133 390.304V499.975H542.133V390.304H540.133ZM540.133 499.975C540.133 512.004 549.937 521.746 562.02 521.746V519.746C551.031 519.746 542.133 510.889 542.133 499.975H540.133ZM562.02 521.746H644.317V519.746H562.02V521.746ZM644.317 521.746C656.4 521.746 666.205 512.004 666.205 499.975H664.205C664.205 510.889 655.306 519.746 644.317 519.746V521.746ZM666.205 499.975V390.304H664.205V499.975H666.205ZM666.205 390.304C666.205 378.275 656.4 368.533 644.317 368.533V370.533C655.306 370.533 664.205 379.39 664.205 390.304H666.205ZM644.317 368.533H562.02V370.533H644.317V368.533Z" fill="black" mask="url(#path-16-inside-2_37_0)"/>
<mask id="path-18-inside-3_37_0" fill="white">
<path fill-rule="evenodd" clip-rule="evenodd" d="M665.12 390.304C665.121 390.332 665.121 390.36 665.121 390.388V499.891C665.121 499.919 665.121 499.947 665.12 499.975C665.075 511.38 655.786 520.617 644.317 520.662C644.289 520.662 644.261 520.662 644.233 520.662H562.104C562.076 520.662 562.048 520.662 562.02 520.662C550.551 520.617 541.262 511.38 541.217 499.975C541.217 499.947 541.217 499.919 541.217 499.891V390.388C541.217 390.36 541.217 390.332 541.217 390.304C541.262 378.899 550.551 369.662 562.02 369.617C562.048 369.617 562.076 369.617 562.104 369.617H644.233C644.261 369.617 644.289 369.617 644.317 369.617C655.786 369.662 665.075 378.899 665.12 390.304ZM541.133 390.304C541.133 378.833 550.484 369.533 562.02 369.533H644.317C655.853 369.533 665.205 378.833 665.205 390.304V499.975C665.205 511.446 655.853 520.746 644.317 520.746H562.02C550.484 520.746 541.133 511.446 541.133 499.975V390.304Z"/>
</mask>
<path fill-rule="evenodd" clip-rule="evenodd" d="M665.12 390.304C665.121 390.332 665.121 390.36 665.121 390.388V499.891C665.121 499.919 665.121 499.947 665.12 499.975C665.075 511.38 655.786 520.617 644.317 520.662C644.289 520.662 644.261 520.662 644.233 520.662H562.104C562.076 520.662 562.048 520.662 562.02 520.662C550.551 520.617 541.262 511.38 541.217 499.975C541.217 499.947 541.217 499.919 541.217 499.891V390.388C541.217 390.36 541.217 390.332 541.217 390.304C541.262 378.899 550.551 369.662 562.02 369.617C562.048 369.617 562.076 369.617 562.104 369.617H644.233C644.261 369.617 644.289 369.617 644.317 369.617C655.786 369.662 665.075 378.899 665.12 390.304ZM541.133 390.304C541.133 378.833 550.484 369.533 562.02 369.533H644.317C655.853 369.533 665.205 378.833 665.205 390.304V499.975C665.205 511.446 655.853 520.746 644.317 520.746H562.02C550.484 520.746 541.133 511.446 541.133 499.975V390.304Z" fill="black"/>
<path d="M665.12 390.304L664.12 390.308V390.308L665.12 390.304ZM665.12 499.975L664.12 499.971V499.971L665.12 499.975ZM644.317 520.662L644.313 519.662H644.313L644.317 520.662ZM562.02 520.662L562.024 519.662H562.024L562.02 520.662ZM541.217 499.975L540.217 499.979L541.217 499.975ZM541.217 390.304L540.217 390.3L541.217 390.304ZM562.02 369.617L562.024 370.617L562.02 369.617ZM644.317 369.617L644.313 370.617L644.317 369.617ZM666.121 390.388C666.121 390.358 666.121 390.329 666.12 390.3L664.12 390.308C664.121 390.335 664.121 390.361 664.121 390.388H666.121ZM666.121 499.891V390.388H664.121V499.891H666.121ZM666.12 499.979C666.121 499.95 666.121 499.92 666.121 499.891H664.121C664.121 499.918 664.121 499.944 664.12 499.971L666.12 499.979ZM644.321 521.662C656.334 521.615 666.073 511.938 666.12 499.979L664.12 499.971C664.078 510.822 655.238 519.619 644.313 519.662L644.321 521.662ZM644.233 521.662C644.262 521.662 644.292 521.662 644.321 521.662L644.313 519.662C644.287 519.662 644.26 519.662 644.233 519.662V521.662ZM562.104 521.662H644.233V519.662H562.104V521.662ZM562.016 521.662C562.046 521.662 562.075 521.662 562.104 521.662V519.662C562.077 519.662 562.051 519.662 562.024 519.662L562.016 521.662ZM540.217 499.979C540.264 511.938 550.003 521.615 562.016 521.662L562.024 519.662C551.099 519.619 542.26 510.822 542.217 499.971L540.217 499.979ZM540.217 499.891C540.217 499.92 540.217 499.95 540.217 499.979L542.217 499.971C542.217 499.944 542.217 499.918 542.217 499.891H540.217ZM540.217 390.388V499.891H542.217V390.388H540.217ZM540.217 390.3C540.217 390.329 540.217 390.358 540.217 390.388H542.217C542.217 390.361 542.217 390.335 542.217 390.308L540.217 390.3ZM562.016 368.617C550.003 368.664 540.264 378.34 540.217 390.3L542.217 390.308C542.26 379.457 551.099 370.659 562.024 370.617L562.016 368.617ZM562.104 368.617C562.075 368.617 562.046 368.617 562.016 368.617L562.024 370.617C562.051 370.617 562.078 370.617 562.104 370.617V368.617ZM644.233 368.617H562.104V370.617H644.233V368.617ZM644.321 368.617C644.292 368.617 644.262 368.617 644.233 368.617V370.617C644.26 370.617 644.286 370.617 644.313 370.617L644.321 368.617ZM666.12 390.3C666.073 378.34 656.334 368.664 644.321 368.617L644.313 370.617C655.238 370.659 664.078 379.457 664.12 390.308L666.12 390.3ZM562.02 368.533C549.937 368.533 540.133 378.275 540.133 390.304H542.133C542.133 379.39 551.031 370.533 562.02 370.533V368.533ZM666.205 390.304C666.205 378.275 656.4 368.533 644.317 368.533V370.533C655.306 370.533 664.205 379.39 664.205 390.304H666.205ZM644.317 521.746C656.4 521.746 666.205 512.004 666.205 499.975H664.205C664.205 510.889 655.306 519.746 644.317 519.746V521.746ZM540.133 499.975C540.133 512.004 549.937 521.746 562.02 521.746V519.746C551.031 519.746 542.133 510.889 542.133 499.975H540.133ZM644.317 368.533H562.02V370.533H644.317V368.533ZM666.205 499.975V390.304H664.205V499.975H666.205ZM562.02 521.746H644.317V519.746H562.02V521.746ZM540.133 390.304V499.975H542.133V390.304H540.133Z" fill="black" mask="url(#path-18-inside-3_37_0)"/>
<path d="M842.766 425.278C842.766 414.045 851.962 404.93 863.316 404.93H932.363C943.717 404.93 952.913 414.045 952.913 425.278V916.056C952.913 927.289 943.717 936.404 932.363 936.404H863.316C851.962 936.404 842.766 927.289 842.766 916.056V425.278Z" fill="black" stroke="black"/>
<path d="M932.363 406.848H863.316C853.046 406.848 844.713 415.095 844.713 425.278V916.056C844.713 926.239 853.046 934.485 863.316 934.485H932.363C942.632 934.485 950.966 926.239 950.966 916.056V425.278C950.966 415.095 942.632 406.848 932.363 406.848ZM842.766 425.278C842.766 414.045 851.962 404.93 863.316 404.93H932.363C943.717 404.93 952.913 414.045 952.913 425.278V916.056C952.913 927.289 943.717 936.404 932.363 936.404H863.316C851.962 936.404 842.766 927.289 842.766 916.056V425.278Z" fill="black" stroke="black"/>
<mask id="path-22-inside-4_37_0" fill="white">
<path fill-rule="evenodd" clip-rule="evenodd" d="M953.329 425.362C953.329 413.848 943.904 404.513 932.278 404.513H863.401C851.775 404.513 842.35 413.848 842.35 425.362V915.972C842.35 927.486 851.775 936.82 863.401 936.82H932.278C943.904 936.82 953.329 927.486 953.329 915.972V425.362ZM863.316 404.43C851.69 404.43 842.266 413.764 842.266 425.278V916.056C842.266 927.57 851.69 936.904 863.316 936.904H932.363C943.988 936.904 953.413 927.57 953.413 916.056V425.278C953.413 413.764 943.988 404.43 932.363 404.43H863.316Z"/>
</mask>
<path fill-rule="evenodd" clip-rule="evenodd" d="M953.329 425.362C953.329 413.848 943.904 404.513 932.278 404.513H863.401C851.775 404.513 842.35 413.848 842.35 425.362V915.972C842.35 927.486 851.775 936.82 863.401 936.82H932.278C943.904 936.82 953.329 927.486 953.329 915.972V425.362ZM863.316 404.43C851.69 404.43 842.266 413.764 842.266 425.278V916.056C842.266 927.57 851.69 936.904 863.316 936.904H932.363C943.988 936.904 953.413 927.57 953.413 916.056V425.278C953.413 413.764 943.988 404.43 932.363 404.43H863.316Z" fill="black"/>
<path d="M954.329 425.362C954.329 413.286 944.447 403.513 932.278 403.513V405.513C943.361 405.513 952.329 414.409 952.329 425.362H954.329ZM932.278 403.513H863.401V405.513H932.278V403.513ZM863.401 403.513C851.232 403.513 841.35 413.286 841.35 425.362H843.35C843.35 414.409 852.318 405.513 863.401 405.513V403.513ZM841.35 425.362V915.972H843.35V425.362H841.35ZM841.35 915.972C841.35 928.048 851.232 937.82 863.401 937.82V935.82C852.318 935.82 843.35 926.925 843.35 915.972H841.35ZM863.401 937.82H932.278V935.82H863.401V937.82ZM932.278 937.82C944.447 937.82 954.329 928.047 954.329 915.972H952.329C952.329 926.925 943.361 935.82 932.278 935.82V937.82ZM954.329 915.972V425.362H952.329V915.972H954.329ZM863.316 403.43C851.147 403.43 841.266 413.203 841.266 425.278H843.266C843.266 414.325 852.234 405.43 863.316 405.43V403.43ZM841.266 425.278V916.056H843.266V425.278H841.266ZM841.266 916.056C841.266 928.131 851.147 937.904 863.316 937.904V935.904C852.234 935.904 843.266 927.009 843.266 916.056H841.266ZM863.316 937.904H932.363V935.904H863.316V937.904ZM932.363 937.904C944.532 937.904 954.413 928.131 954.413 916.056H952.413C952.413 927.009 943.445 935.904 932.363 935.904V937.904ZM954.413 916.056V425.278H952.413V916.056H954.413ZM954.413 425.278C954.413 413.203 944.532 403.43 932.363 403.43V405.43C943.445 405.43 952.413 414.325 952.413 425.278H954.413ZM932.363 403.43H863.316V405.43H932.363V403.43Z" fill="black" mask="url(#path-22-inside-4_37_0)"/>
<mask id="path-24-inside-5_37_0" fill="white">
<path fill-rule="evenodd" clip-rule="evenodd" d="M953.328 425.278C953.328 425.306 953.329 425.334 953.329 425.362V915.972C953.329 916 953.328 916.028 953.328 916.056C953.283 927.503 943.921 936.775 932.363 936.82C932.334 936.82 932.306 936.82 932.278 936.82H863.401C863.373 936.82 863.345 936.82 863.316 936.82C851.757 936.775 842.396 927.503 842.35 916.056C842.35 916.028 842.35 916 842.35 915.972V425.362C842.35 425.334 842.35 425.306 842.35 425.278C842.396 413.83 851.757 404.559 863.316 404.514C863.345 404.513 863.373 404.513 863.401 404.513H932.278C932.306 404.513 932.334 404.513 932.363 404.514C943.921 404.559 953.283 413.83 953.328 425.278ZM842.266 425.278C842.266 413.764 851.69 404.43 863.316 404.43H932.363C943.988 404.43 953.413 413.764 953.413 425.278V916.056C953.413 927.57 943.988 936.904 932.363 936.904H863.316C851.69 936.904 842.266 927.57 842.266 916.056V425.278Z"/>
</mask>
<path fill-rule="evenodd" clip-rule="evenodd" d="M953.328 425.278C953.328 425.306 953.329 425.334 953.329 425.362V915.972C953.329 916 953.328 916.028 953.328 916.056C953.283 927.503 943.921 936.775 932.363 936.82C932.334 936.82 932.306 936.82 932.278 936.82H863.401C863.373 936.82 863.345 936.82 863.316 936.82C851.757 936.775 842.396 927.503 842.35 916.056C842.35 916.028 842.35 916 842.35 915.972V425.362C842.35 425.334 842.35 425.306 842.35 425.278C842.396 413.83 851.757 404.559 863.316 404.514C863.345 404.513 863.373 404.513 863.401 404.513H932.278C932.306 404.513 932.334 404.513 932.363 404.514C943.921 404.559 953.283 413.83 953.328 425.278ZM842.266 425.278C842.266 413.764 851.69 404.43 863.316 404.43H932.363C943.988 404.43 953.413 413.764 953.413 425.278V916.056C953.413 927.57 943.988 936.904 932.363 936.904H863.316C851.69 936.904 842.266 927.57 842.266 916.056V425.278Z" fill="black"/>
<path d="M953.328 425.278L952.328 425.282V425.282L953.328 425.278ZM953.328 916.056L952.328 916.051V916.052L953.328 916.056ZM932.363 936.82L932.366 937.82H932.366L932.363 936.82ZM863.316 936.82L863.312 937.82H863.313L863.316 936.82ZM842.35 916.056L843.35 916.052L842.35 916.056ZM842.35 425.278L841.35 425.274L842.35 425.278ZM863.316 404.514L863.312 403.514L863.316 404.514ZM932.363 404.514L932.366 403.514L932.363 404.514ZM954.329 425.362C954.329 425.333 954.328 425.304 954.328 425.274L952.328 425.282C952.328 425.309 952.329 425.335 952.329 425.362H954.329ZM954.329 915.972V425.362H952.329V915.972H954.329ZM954.328 916.06C954.328 916.03 954.329 916.001 954.329 915.972H952.329C952.329 915.998 952.328 916.025 952.328 916.051L954.328 916.06ZM932.366 937.82C944.465 937.773 954.281 928.066 954.328 916.059L952.328 916.052C952.285 926.941 943.377 935.777 932.359 935.82L932.366 937.82ZM932.278 937.82C932.307 937.82 932.337 937.82 932.366 937.82L932.359 935.82C932.332 935.82 932.305 935.82 932.278 935.82V937.82ZM863.401 937.82H932.278V935.82H863.401V937.82ZM863.313 937.82C863.342 937.82 863.372 937.82 863.401 937.82V935.82C863.374 935.82 863.347 935.82 863.32 935.82L863.313 937.82ZM841.35 916.059C841.398 928.066 851.213 937.773 863.312 937.82L863.32 935.82C852.302 935.777 843.394 926.941 843.35 916.052L841.35 916.059ZM841.35 915.972C841.35 916.001 841.35 916.03 841.35 916.059L843.35 916.052C843.35 916.025 843.35 915.998 843.35 915.972H841.35ZM841.35 425.362V915.972H843.35V425.362H841.35ZM841.35 425.274C841.35 425.304 841.35 425.333 841.35 425.362H843.35C843.35 425.335 843.35 425.309 843.35 425.282L841.35 425.274ZM863.312 403.514C851.213 403.561 841.398 413.268 841.35 425.274L843.35 425.282C843.394 414.393 852.302 405.557 863.32 405.514L863.312 403.514ZM863.401 403.513C863.371 403.513 863.342 403.513 863.312 403.514L863.32 405.514C863.347 405.513 863.374 405.513 863.401 405.513V403.513ZM932.278 403.513H863.401V405.513H932.278V403.513ZM932.366 403.514C932.337 403.513 932.307 403.513 932.278 403.513V405.513C932.305 405.513 932.332 405.513 932.359 405.514L932.366 403.514ZM954.328 425.274C954.281 413.268 944.465 403.561 932.366 403.514L932.359 405.514C943.377 405.557 952.285 414.393 952.328 425.282L954.328 425.274ZM863.316 403.43C851.147 403.43 841.266 413.203 841.266 425.278H843.266C843.266 414.325 852.234 405.43 863.316 405.43V403.43ZM954.413 425.278C954.413 413.203 944.532 403.43 932.363 403.43V405.43C943.445 405.43 952.413 414.325 952.413 425.278H954.413ZM932.363 937.904C944.532 937.904 954.413 928.131 954.413 916.056H952.413C952.413 927.009 943.445 935.904 932.363 935.904V937.904ZM841.266 916.056C841.266 928.131 851.147 937.904 863.316 937.904V935.904C852.234 935.904 843.266 927.009 843.266 916.056H841.266ZM932.363 403.43H863.316V405.43H932.363V403.43ZM954.413 916.056V425.278H952.413V916.056H954.413ZM863.316 937.904H932.363V935.904H863.316V937.904ZM841.266 425.278V916.056H843.266V425.278H841.266Z" fill="black" mask="url(#path-24-inside-5_37_0)"/>
</svg>
